<svg xmlns="http://www.w3.org/2000/svg" id="canvas" viewBox="297.459 365.302 1554.187 164.669"><path d="M 343.14,408.43 C 342.58 408.00, 341.87 407.75, 340.31 407.53 C 338.75 407.30, 337.64 407.13, 335.34 407.30 C 333.04 407.47, 331.54 407.62, 328.83 408.39 C 326.12 409.15, 324.58 409.79, 321.79 411.13 C 319.00 412.48, 317.39 413.36, 314.89 415.12 C 312.39 416.89, 311.10 417.95, 309.26 419.96 C 307.43 421.98, 306.63 423.13, 305.71 425.19 C 304.80 427.25, 304.53 428.31, 304.68 430.29 C 304.83 432.27, 305.21 433.27, 306.45 435.10 C 307.69 436.94, 308.70 437.86, 310.89 439.46 C 313.08 441.06, 314.61 441.71, 317.41 443.11 C 320.20 444.51, 321.89 445.09, 324.85 446.46 C 327.81 447.83, 329.48 448.51, 332.21 449.97 C 334.95 451.43, 336.33 452.27, 338.51 453.78 C 340.68 455.29, 341.70 456.02, 343.09 457.52 C 344.48 459.02, 344.98 459.78, 345.44 461.29 C 345.90 462.81, 345.89 463.57, 345.39 465.08 C 344.88 466.60, 344.36 467.34, 342.91 468.87 C 341.46 470.41, 340.41 471.21, 338.15 472.76 C 335.90 474.31, 334.55 475.22, 331.62 476.63 C 328.70 478.04, 326.92 478.76, 323.55 479.81 C 320.17 480.85, 318.05 481.20, 314.76 481.86 C 311.48 482.51, 309.79 482.67, 307.11 483.08 C 304.42 483.49, 302.49 483.51, 301.33 483.91 C 300.18 484.31, 300.15 484.73, 301.35 485.09 C 302.56 485.45, 304.57 485.84, 307.36 485.72 C 310.15 485.61, 311.90 485.19, 315.29 484.52 C 318.68 483.84, 320.82 483.42, 324.32 482.36 C 327.83 481.30, 329.69 480.61, 332.82 479.23 C 335.95 477.85, 337.52 477.14, 340.00 475.46 C 342.47 473.79, 343.63 472.80, 345.20 470.87 C 346.78 468.94, 347.36 467.86, 347.88 465.81 C 348.41 463.75, 348.37 462.62, 347.82 460.61 C 347.27 458.60, 346.65 457.61, 345.14 455.75 C 343.62 453.89, 342.55 452.99, 340.24 451.33 C 337.93 449.67, 336.40 448.93, 333.57 447.43 C 330.74 445.93, 329.04 445.26, 326.10 443.83 C 323.16 442.40, 321.53 441.69, 318.87 440.28 C 316.20 438.86, 314.83 438.12, 312.79 436.75 C 310.74 435.39, 309.78 434.78, 308.63 433.45 C 307.48 432.12, 307.14 431.53, 307.04 430.11 C 306.93 428.69, 307.20 427.97, 308.09 426.36 C 308.98 424.75, 309.76 423.79, 311.48 422.06 C 313.19 420.33, 314.34 419.30, 316.68 417.70 C 319.02 416.10, 320.54 415.24, 323.16 414.07 C 325.77 412.90, 327.26 412.51, 329.77 411.86 C 332.28 411.21, 333.62 411.14, 335.72 410.83 C 337.83 410.52, 338.85 410.55, 340.32 410.31 C 341.79 410.08, 342.52 410.05, 343.08 409.67 C 343.64 409.29, 343.69 408.86, 343.14 408.43" style="stroke: black; fill: black;"/><path d="M 383.77,368.79 C 383.43 369.39, 383.41 369.95, 383.23 371.72 C 383.05 373.48, 382.96 374.64, 382.87 377.62 C 382.78 380.60, 382.94 382.51, 382.79 386.61 C 382.64 390.72, 382.47 393.19, 382.13 398.14 C 381.80 403.09, 381.58 405.95, 381.12 411.35 C 380.66 416.74, 380.34 419.68, 379.84 425.13 C 379.34 430.57, 379.06 433.43, 378.63 438.58 C 378.19 443.73, 378.03 446.50, 377.66 450.90 C 377.29 455.29, 377.00 457.44, 376.77 460.55 C 376.53 463.67, 376.49 464.73, 376.49 466.47 C 376.49 468.21, 376.65 468.58, 376.77 469.24 C 376.89 469.90, 376.97 469.64, 377.08 469.75 C 377.19 469.86, 377.18 469.88, 377.32 469.80 C 377.47 469.72, 377.56 469.99, 377.82 469.36 C 378.08 468.72, 378.35 468.37, 378.62 466.64 C 378.90 464.91, 379.00 463.84, 379.19 460.72 C 379.39 457.59, 379.37 455.43, 379.60 451.03 C 379.83 446.63, 379.96 443.86, 380.34 438.71 C 380.71 433.56, 380.99 430.72, 381.49 425.28 C 382.00 419.84, 382.35 416.90, 382.87 411.51 C 383.40 406.11, 383.64 403.25, 384.13 398.30 C 384.61 393.36, 384.89 390.90, 385.30 386.78 C 385.71 382.67, 386.07 380.75, 386.18 377.73 C 386.29 374.71, 386.11 373.47, 385.85 371.66 C 385.60 369.86, 385.33 369.28, 384.91 368.71 C 384.49 368.13, 384.11 368.18, 383.77 368.79" style="stroke: black; fill: black;"/><path d="M 363.23,425.91 C 363.81 426.22, 364.41 426.20, 365.97 426.28 C 367.54 426.35, 368.59 426.36, 371.06 426.28 C 373.53 426.20, 375.10 426.02, 378.33 425.89 C 381.56 425.76, 383.79 425.69, 387.19 425.64 C 390.60 425.58, 392.59 425.78, 395.34 425.60 C 398.10 425.42, 399.84 425.14, 400.96 424.74 C 402.09 424.34, 402.08 423.99, 400.96 423.60 C 399.84 423.21, 398.11 422.99, 395.36 422.78 C 392.60 422.58, 390.61 422.62, 387.19 422.58 C 383.77 422.54, 381.52 422.53, 378.25 422.56 C 374.98 422.59, 373.37 422.50, 370.86 422.71 C 368.34 422.92, 367.25 423.19, 365.69 423.60 C 364.13 424.00, 363.55 424.28, 363.06 424.74 C 362.56 425.20, 362.64 425.60, 363.23 425.91" style="stroke: black; fill: black;"/><path d="M 454.80,428.34 C 454.45 427.84, 453.95 427.48, 452.74 427.04 C 451.52 426.59, 450.65 426.27, 448.74 426.11 C 446.83 425.95, 445.53 425.86, 443.17 426.22 C 440.82 426.59, 439.49 426.97, 436.98 427.94 C 434.47 428.91, 433.06 429.49, 430.60 431.06 C 428.15 432.64, 426.85 433.66, 424.72 435.81 C 422.58 437.97, 421.51 439.23, 419.94 441.84 C 418.37 444.45, 417.64 445.99, 416.88 448.85 C 416.11 451.71, 415.88 453.39, 416.11 456.14 C 416.35 458.89, 416.74 460.33, 418.06 462.60 C 419.38 464.87, 420.42 465.98, 422.72 467.49 C 425.01 469.00, 426.52 469.62, 429.53 470.13 C 432.53 470.65, 434.37 470.56, 437.74 470.08 C 441.12 469.59, 443.05 469.07, 446.40 467.71 C 449.74 466.35, 451.47 465.36, 454.45 463.27 C 457.42 461.18, 458.88 459.85, 461.26 457.27 C 463.64 454.70, 464.80 453.21, 466.35 450.39 C 467.90 447.58, 468.49 446.02, 469.02 443.21 C 469.55 440.39, 469.45 438.79, 468.99 436.31 C 468.53 433.83, 468.03 432.65, 466.72 430.80 C 465.42 428.95, 464.30 428.19, 462.47 427.06 C 460.65 425.93, 459.51 425.57, 457.61 425.17 C 455.70 424.77, 454.50 424.91, 452.94 425.05 C 451.38 425.20, 450.76 425.50, 449.81 425.89 C 448.87 426.28, 448.48 426.60, 448.20 426.99 C 447.93 427.38, 448.05 427.65, 448.45 427.84 C 448.85 428.04, 449.29 427.93, 450.21 427.96 C 451.13 428.00, 451.69 427.98, 453.05 428.02 C 454.41 428.05, 455.41 427.85, 457.01 428.16 C 458.60 428.46, 459.51 428.68, 461.01 429.53 C 462.52 430.37, 463.47 430.92, 464.52 432.37 C 465.58 433.82, 465.96 434.72, 466.29 436.78 C 466.63 438.84, 466.67 440.21, 466.21 442.68 C 465.74 445.14, 465.33 446.53, 463.96 449.10 C 462.59 451.67, 461.56 453.12, 459.37 455.54 C 457.18 457.96, 455.78 459.25, 452.99 461.19 C 450.20 463.14, 448.54 464.05, 445.42 465.26 C 442.30 466.48, 440.45 466.91, 437.37 467.28 C 434.30 467.66, 432.66 467.58, 430.04 467.14 C 427.42 466.70, 426.17 466.26, 424.26 465.08 C 422.34 463.90, 421.50 463.05, 420.45 461.22 C 419.40 459.39, 419.13 458.24, 419.01 455.93 C 418.89 453.62, 419.13 452.17, 419.84 449.67 C 420.55 447.16, 421.13 445.74, 422.54 443.41 C 423.95 441.08, 424.95 439.93, 426.91 438.02 C 428.87 436.10, 430.10 435.22, 432.35 433.83 C 434.60 432.45, 435.89 431.91, 438.15 431.09 C 440.42 430.27, 441.61 430.04, 443.69 429.75 C 445.78 429.46, 446.87 429.66, 448.58 429.66 C 450.29 429.66, 451.08 429.78, 452.26 429.75 C 453.44 429.73, 453.99 429.82, 454.50 429.53 C 455.01 429.25, 455.15 428.84, 454.80 428.34" style="stroke: black; fill: black;"/><path d="M 497.49,427.49 C 497.05 427.96, 496.85 428.50, 496.43 430.01 C 496.02 431.52, 495.73 432.47, 495.43 435.04 C 495.14 437.62, 495.22 439.31, 494.96 442.89 C 494.71 446.48, 494.55 448.61, 494.15 452.98 C 493.75 457.35, 493.48 459.88, 492.95 464.76 C 492.42 469.63, 492.07 472.32, 491.48 477.37 C 490.89 482.41, 490.58 485.13, 490.00 489.99 C 489.41 494.85, 489.09 497.47, 488.57 501.67 C 488.04 505.87, 487.69 507.91, 487.37 510.96 C 487.06 514.02, 487.02 515.17, 487.01 516.96 C 487.00 518.75, 487.18 519.19, 487.30 519.92 C 487.43 520.66, 487.51 520.49, 487.64 520.64 C 487.78 520.79, 487.80 520.80, 487.97 520.67 C 488.13 520.55, 488.22 520.73, 488.47 520.03 C 488.72 519.32, 488.95 518.91, 489.23 517.15 C 489.51 515.38, 489.60 514.26, 489.88 511.20 C 490.15 508.15, 490.21 506.09, 490.60 501.89 C 490.99 497.69, 491.29 495.06, 491.83 490.20 C 492.36 485.34, 492.67 482.63, 493.28 477.58 C 493.89 472.54, 494.26 469.86, 494.88 464.99 C 495.50 460.12, 495.81 457.59, 496.39 453.23 C 496.98 448.88, 497.30 446.76, 497.81 443.20 C 498.32 439.63, 498.68 437.99, 498.93 435.41 C 499.17 432.83, 499.07 431.86, 499.02 430.31 C 498.96 428.76, 498.96 428.21, 498.65 427.64 C 498.35 427.08, 497.94 427.01, 497.49 427.49" style="stroke: black; fill: black;"/><path d="M 493.73,428.26 C 494.27 428.26, 494.58 427.85, 495.54 427.38 C 496.50 426.91, 497.07 426.52, 498.52 425.92 C 499.98 425.33, 500.79 424.86, 502.81 424.42 C 504.82 423.97, 506.09 423.79, 508.59 423.69 C 511.09 423.59, 512.60 423.62, 515.32 423.93 C 518.03 424.24, 519.54 424.46, 522.17 425.24 C 524.79 426.03, 526.18 426.57, 528.44 427.84 C 530.69 429.12, 531.79 429.93, 533.44 431.62 C 535.10 433.32, 535.82 434.29, 536.71 436.30 C 537.60 438.32, 537.86 439.48, 537.90 441.69 C 537.93 443.91, 537.75 445.12, 536.87 447.38 C 536.00 449.64, 535.31 450.82, 533.52 453.01 C 531.74 455.20, 530.49 456.38, 527.95 458.34 C 525.42 460.29, 523.82 461.28, 520.87 462.77 C 517.93 464.27, 516.14 464.96, 513.23 465.81 C 510.32 466.66, 508.79 466.71, 506.34 467.04 C 503.89 467.37, 502.71 467.34, 500.98 467.46 C 499.26 467.57, 498.39 467.40, 497.71 467.62 C 497.03 467.84, 496.94 468.15, 497.57 468.55 C 498.21 468.96, 499.06 469.38, 500.88 469.66 C 502.69 469.95, 504.02 470.21, 506.66 469.98 C 509.29 469.75, 510.96 469.47, 514.05 468.52 C 517.14 467.56, 518.99 466.80, 522.11 465.20 C 525.23 463.61, 526.90 462.62, 529.65 460.56 C 532.39 458.50, 533.82 457.32, 535.82 454.90 C 537.83 452.47, 538.68 451.09, 539.67 448.44 C 540.67 445.79, 540.86 444.29, 540.79 441.63 C 540.71 438.97, 540.36 437.57, 539.32 435.16 C 538.28 432.75, 537.43 431.59, 535.56 429.60 C 533.70 427.60, 532.47 426.65, 529.98 425.18 C 527.48 423.71, 525.94 423.15, 523.09 422.25 C 520.25 421.34, 518.66 421.05, 515.73 420.65 C 512.81 420.24, 511.22 420.15, 508.48 420.22 C 505.74 420.28, 504.31 420.44, 502.03 420.96 C 499.75 421.47, 498.69 421.95, 497.06 422.80 C 495.43 423.65, 494.72 424.28, 493.87 425.21 C 493.02 426.14, 492.85 426.82, 492.82 427.43 C 492.79 428.04, 493.18 428.27, 493.73 428.26" style="stroke: black; fill: black;"/><path d="M 661.54,415.82 C 661.16 416.05, 661.02 416.15, 660.63 417.09 C 660.24 418.02, 659.97 418.60, 659.59 420.49 C 659.22 422.39, 659.05 423.71, 658.76 426.57 C 658.48 429.42, 658.43 431.27, 658.16 434.77 C 657.89 438.27, 657.64 440.43, 657.42 444.06 C 657.20 447.69, 657.03 449.68, 657.06 452.91 C 657.10 456.15, 657.13 457.78, 657.60 460.25 C 658.07 462.72, 658.46 463.75, 659.41 465.27 C 660.36 466.78, 660.97 467.31, 662.35 467.84 C 663.73 468.38, 664.60 468.44, 666.30 467.94 C 668.01 467.44, 669.02 466.86, 670.87 465.33 C 672.72 463.81, 673.70 462.68, 675.56 460.31 C 677.41 457.93, 678.31 456.36, 680.16 453.46 C 682.01 450.57, 683.02 448.82, 684.81 445.85 C 686.61 442.88, 687.52 441.22, 689.13 438.62 C 690.75 436.01, 691.64 434.76, 692.88 432.80 C 694.11 430.84, 694.60 429.81, 695.30 428.81 C 696.01 427.81, 696.07 427.52, 696.38 427.81 C 696.70 428.10, 696.64 428.67, 696.90 430.25 C 697.15 431.83, 697.24 433.13, 697.66 435.69 C 698.09 438.26, 698.49 440.03, 699.00 443.08 C 699.51 446.13, 699.68 447.98, 700.21 450.95 C 700.74 453.92, 700.95 455.45, 701.65 457.91 C 702.35 460.37, 702.74 461.55, 703.72 463.25 C 704.70 464.94, 705.25 465.66, 706.55 466.38 C 707.86 467.10, 708.62 467.26, 710.24 466.85 C 711.86 466.44, 712.87 466.01, 714.67 464.34 C 716.46 462.67, 717.38 461.34, 719.21 458.50 C 721.04 455.66, 721.91 453.69, 723.82 450.12 C 725.73 446.56, 726.81 444.40, 728.75 440.68 C 730.68 436.97, 731.71 434.93, 733.51 431.55 C 735.32 428.17, 736.23 426.52, 737.78 423.79 C 739.34 421.06, 740.08 419.90, 741.28 417.89 C 742.49 415.87, 743.05 415.04, 743.81 413.71 C 744.57 412.39, 744.96 411.86, 745.08 411.26 C 745.20 410.66, 744.99 410.46, 744.41 410.71 C 743.84 410.96, 743.28 411.36, 742.20 412.51 C 741.11 413.66, 740.34 414.44, 739.00 416.45 C 737.67 418.45, 737.04 419.74, 735.53 422.54 C 734.02 425.34, 733.22 427.05, 731.46 430.47 C 729.69 433.88, 728.67 435.92, 726.70 439.60 C 724.72 443.28, 723.60 445.44, 721.59 448.87 C 719.57 452.31, 718.46 454.12, 716.62 456.77 C 714.78 459.41, 713.82 460.49, 712.39 462.09 C 710.96 463.68, 710.43 464.20, 709.47 464.73 C 708.51 465.26, 708.27 465.26, 707.58 464.73 C 706.89 464.21, 706.62 463.63, 706.01 462.11 C 705.41 460.60, 705.10 459.50, 704.57 457.16 C 704.04 454.83, 703.79 453.35, 703.36 450.43 C 702.93 447.52, 702.79 445.68, 702.41 442.59 C 702.02 439.50, 702.02 437.63, 701.45 434.98 C 700.88 432.32, 700.46 430.98, 699.56 429.31 C 698.66 427.63, 698.10 426.99, 696.96 426.59 C 695.82 426.19, 695.16 426.40, 693.87 427.31 C 692.57 428.23, 691.92 429.21, 690.48 431.17 C 689.04 433.13, 688.28 434.46, 686.67 437.11 C 685.07 439.76, 684.25 441.47, 682.46 444.42 C 680.67 447.36, 679.64 449.09, 677.73 451.84 C 675.81 454.59, 674.71 455.97, 672.89 458.17 C 671.08 460.37, 670.15 461.36, 668.64 462.83 C 667.13 464.30, 666.46 464.89, 665.33 465.53 C 664.21 466.18, 663.81 466.31, 663.01 466.04 C 662.22 465.78, 661.90 465.46, 661.36 464.21 C 660.83 462.97, 660.63 462.08, 660.33 459.81 C 660.03 457.54, 659.91 456.00, 659.87 452.88 C 659.83 449.77, 659.89 447.80, 660.14 444.24 C 660.39 440.68, 660.67 438.53, 661.14 435.09 C 661.62 431.64, 662.11 429.85, 662.51 427.02 C 662.92 424.19, 663.05 422.86, 663.16 420.94 C 663.26 419.02, 663.15 418.41, 663.03 417.42 C 662.90 416.42, 662.83 416.29, 662.54 415.98 C 662.24 415.66, 661.92 415.60, 661.54 415.82" style="stroke: black; fill: black;"/><path d="M 793.34,423.92 C 793.33 423.42, 793.21 423.01, 792.57 422.32 C 791.93 421.63, 791.42 421.09, 790.13 420.47 C 788.84 419.85, 787.96 419.46, 786.13 419.22 C 784.31 418.98, 783.17 418.95, 781.01 419.29 C 778.86 419.62, 777.72 419.85, 775.36 420.88 C 773.01 421.91, 771.61 422.58, 769.25 424.43 C 766.88 426.28, 765.66 427.59, 763.55 430.12 C 761.43 432.65, 760.32 434.18, 758.68 437.09 C 757.05 440.01, 756.29 441.71, 755.35 444.69 C 754.42 447.66, 754.12 449.28, 754.01 451.97 C 753.89 454.66, 754.02 456.04, 754.77 458.14 C 755.52 460.24, 756.23 461.19, 757.77 462.47 C 759.31 463.74, 760.36 464.16, 762.47 464.51 C 764.58 464.86, 765.86 464.91, 768.30 464.23 C 770.73 463.54, 772.19 462.83, 774.65 461.08 C 777.10 459.33, 778.24 458.03, 780.57 455.50 C 782.89 452.97, 784.09 451.38, 786.28 448.43 C 788.47 445.49, 789.60 443.69, 791.53 440.76 C 793.45 437.82, 794.41 436.25, 795.91 433.75 C 797.40 431.24, 798.12 430.01, 799.01 428.23 C 799.90 426.45, 800.15 425.69, 800.35 424.85 C 800.54 424.01, 800.28 423.78, 799.97 424.02 C 799.66 424.27, 799.22 424.64, 798.80 426.06 C 798.38 427.47, 798.11 428.61, 797.88 431.10 C 797.65 433.59, 797.72 435.33, 797.67 438.50 C 797.63 441.67, 797.66 443.64, 797.66 446.96 C 797.67 450.28, 797.45 452.18, 797.68 455.09 C 797.91 458.00, 798.33 459.50, 798.82 461.49 C 799.32 463.49, 799.70 464.37, 800.14 465.05 C 800.59 465.73, 800.87 465.67, 801.07 464.89 C 801.27 464.12, 801.18 463.18, 801.13 461.18 C 801.09 459.19, 800.93 457.76, 800.85 454.92 C 800.76 452.08, 800.66 450.24, 800.71 446.98 C 800.77 443.73, 800.89 441.77, 801.12 438.65 C 801.35 435.53, 801.74 433.86, 801.87 431.38 C 801.99 428.90, 801.97 427.76, 801.74 426.24 C 801.51 424.72, 801.26 424.24, 800.71 423.78 C 800.17 423.32, 799.84 423.33, 799.03 423.94 C 798.22 424.56, 797.80 425.20, 796.67 426.86 C 795.53 428.51, 794.84 429.74, 793.36 432.24 C 791.89 434.73, 791.13 436.40, 789.29 439.32 C 787.46 442.25, 786.33 444.01, 784.17 446.85 C 782.02 449.69, 780.78 451.22, 778.50 453.53 C 776.22 455.85, 774.99 456.87, 772.77 458.41 C 770.55 459.96, 769.37 460.58, 767.38 461.26 C 765.39 461.94, 764.44 461.95, 762.82 461.81 C 761.21 461.68, 760.44 461.47, 759.32 460.57 C 758.19 459.68, 757.70 459.02, 757.21 457.34 C 756.73 455.65, 756.71 454.50, 756.89 452.14 C 757.08 449.79, 757.29 448.29, 758.15 445.56 C 759.00 442.83, 759.64 441.20, 761.17 438.50 C 762.70 435.79, 763.80 434.35, 765.81 432.06 C 767.83 429.77, 769.08 428.67, 771.25 427.04 C 773.42 425.40, 774.63 424.77, 776.68 423.88 C 778.72 422.98, 779.69 422.78, 781.48 422.55 C 783.27 422.31, 784.18 422.48, 785.63 422.71 C 787.09 422.94, 787.67 423.33, 788.76 423.71 C 789.85 424.10, 790.31 424.39, 791.07 424.62 C 791.84 424.85, 792.14 424.99, 792.59 424.85 C 793.05 424.71, 793.34 424.43, 793.34 423.92" style="stroke: black; fill: black;"/><path d="M 861.54,421.18 C 861.42 420.68, 861.15 420.29, 860.34 419.76 C 859.53 419.23, 859.00 418.84, 857.49 418.53 C 855.98 418.23, 854.87 418.07, 852.80 418.22 C 850.74 418.38, 849.51 418.67, 847.16 419.33 C 844.82 419.98, 843.42 420.43, 841.06 421.50 C 838.71 422.57, 837.36 423.23, 835.38 424.68 C 833.41 426.12, 832.44 427.05, 831.19 428.72 C 829.95 430.39, 829.48 431.27, 829.16 433.02 C 828.85 434.76, 828.90 435.72, 829.63 437.45 C 830.36 439.18, 831.19 440.11, 832.82 441.65 C 834.45 443.19, 835.70 443.82, 837.78 445.16 C 839.86 446.49, 841.07 447.07, 843.23 448.32 C 845.39 449.57, 846.67 450.20, 848.57 451.39 C 850.46 452.59, 851.44 453.19, 852.71 454.31 C 853.99 455.44, 854.46 455.97, 854.96 457.02 C 855.46 458.06, 855.56 458.53, 855.21 459.53 C 854.87 460.54, 854.49 461.03, 853.23 462.05 C 851.97 463.07, 850.99 463.62, 848.93 464.63 C 846.86 465.65, 845.54 466.26, 842.89 467.13 C 840.25 468.01, 838.60 468.51, 835.69 469.01 C 832.78 469.51, 831.03 469.60, 828.33 469.65 C 825.63 469.70, 824.27 469.49, 822.20 469.26 C 820.12 469.03, 819.28 468.81, 817.96 468.51 C 816.64 468.21, 816.16 467.77, 815.60 467.77 C 815.04 467.77, 814.83 467.99, 815.15 468.52 C 815.48 469.05, 815.91 469.70, 817.22 470.42 C 818.53 471.14, 819.49 471.63, 821.72 472.12 C 823.95 472.62, 825.46 472.89, 828.36 472.89 C 831.26 472.90, 833.09 472.63, 836.21 472.13 C 839.32 471.63, 841.07 471.27, 843.93 470.38 C 846.80 469.50, 848.24 468.93, 850.52 467.70 C 852.79 466.47, 853.90 465.72, 855.29 464.22 C 856.69 462.71, 857.13 461.78, 857.50 460.16 C 857.87 458.54, 857.72 457.70, 857.16 456.12 C 856.60 454.55, 856.06 453.78, 854.70 452.30 C 853.34 450.82, 852.30 450.11, 850.35 448.73 C 848.40 447.35, 847.10 446.71, 844.95 445.41 C 842.81 444.11, 841.64 443.47, 839.64 442.22 C 837.63 440.97, 836.48 440.36, 834.95 439.18 C 833.41 437.99, 832.64 437.44, 831.94 436.30 C 831.25 435.16, 831.19 434.65, 831.48 433.50 C 831.76 432.34, 832.22 431.75, 833.37 430.52 C 834.52 429.28, 835.40 428.50, 837.22 427.33 C 839.03 426.16, 840.26 425.57, 842.44 424.66 C 844.62 423.75, 845.97 423.34, 848.10 422.78 C 850.23 422.23, 851.32 422.04, 853.11 421.88 C 854.89 421.72, 855.77 421.90, 857.04 421.96 C 858.31 422.02, 858.67 422.11, 859.45 422.17 C 860.23 422.23, 860.53 422.45, 860.94 422.25 C 861.36 422.05, 861.66 421.68, 861.54 421.18" style="stroke: black; fill: black;"/><path d="M 896.53,369.48 C 896.14 370.11, 896.05 370.82, 895.76 372.62 C 895.47 374.43, 895.26 375.61, 895.07 378.52 C 894.88 381.42, 895.06 383.25, 894.80 387.14 C 894.54 391.02, 894.30 393.34, 893.79 397.94 C 893.28 402.54, 892.91 405.17, 892.26 410.14 C 891.62 415.11, 891.23 417.78, 890.55 422.78 C 889.88 427.79, 889.53 430.49, 888.89 435.17 C 888.25 439.86, 887.93 442.32, 887.35 446.20 C 886.76 450.07, 886.34 451.86, 885.97 454.57 C 885.61 457.27, 885.56 458.22, 885.51 459.72 C 885.45 461.23, 885.61 461.51, 885.69 462.09 C 885.78 462.66, 885.83 462.47, 885.93 462.58 C 886.03 462.70, 886.03 462.73, 886.19 462.67 C 886.35 462.60, 886.44 462.79, 886.72 462.27 C 887.00 461.74, 887.20 461.49, 887.57 460.02 C 887.95 458.56, 888.22 457.64, 888.60 454.93 C 888.98 452.22, 889.05 450.38, 889.48 446.47 C 889.91 442.57, 890.18 440.10, 890.75 435.41 C 891.33 430.73, 891.67 428.03, 892.34 423.02 C 893.02 418.02, 893.42 415.36, 894.13 410.40 C 894.84 405.43, 895.24 402.81, 895.90 398.21 C 896.55 393.61, 896.90 391.29, 897.41 387.40 C 897.92 383.50, 898.23 381.68, 898.43 378.75 C 898.64 375.81, 898.58 374.58, 898.43 372.73 C 898.29 370.88, 898.10 370.14, 897.72 369.49 C 897.34 368.84, 896.92 368.86, 896.53 369.48" style="stroke: black; fill: black;"/><path d="M 877.28,425.41 C 877.79 425.62, 878.16 425.46, 879.37 425.35 C 880.58 425.24, 881.36 425.10, 883.32 424.87 C 885.27 424.65, 886.51 424.49, 889.14 424.22 C 891.76 423.94, 893.56 423.78, 896.43 423.51 C 899.29 423.24, 901.07 423.21, 903.45 422.87 C 905.82 422.52, 907.35 422.23, 908.31 421.78 C 909.27 421.33, 909.25 420.98, 908.26 420.62 C 907.26 420.26, 905.74 420.12, 903.33 419.97 C 900.92 419.82, 899.12 419.79, 896.20 419.87 C 893.28 419.95, 891.43 420.09, 888.72 420.39 C 886.02 420.69, 884.71 420.88, 882.69 421.36 C 880.67 421.84, 879.79 422.20, 878.62 422.80 C 877.45 423.39, 877.10 423.82, 876.83 424.34 C 876.57 424.86, 876.77 425.21, 877.28 425.41" style="stroke: black; fill: black;"/><path d="M 937.89,419.11 C 937.43 419.68, 937.23 420.40, 936.79 422.08 C 936.36 423.76, 936.07 424.94, 935.70 427.51 C 935.33 430.08, 935.27 431.84, 934.95 434.93 C 934.63 438.03, 934.47 439.85, 934.09 442.99 C 933.72 446.14, 933.37 447.83, 933.06 450.66 C 932.74 453.48, 932.63 454.98, 932.50 457.11 C 932.38 459.24, 932.34 460.05, 932.42 461.30 C 932.51 462.54, 932.72 462.85, 932.94 463.33 C 933.16 463.82, 933.35 463.67, 933.51 463.73 C 933.68 463.79, 933.67 463.71, 933.77 463.62 C 933.88 463.53, 933.85 463.72, 934.03 463.29 C 934.21 462.86, 934.41 462.64, 934.67 461.46 C 934.94 460.29, 935.05 459.49, 935.36 457.40 C 935.66 455.32, 935.85 453.84, 936.20 451.03 C 936.56 448.22, 936.70 446.51, 937.12 443.37 C 937.53 440.24, 937.85 438.43, 938.29 435.35 C 938.73 432.26, 939.08 430.53, 939.33 427.94 C 939.58 425.35, 939.58 424.13, 939.53 422.39 C 939.49 420.65, 939.43 419.90, 939.10 419.24 C 938.77 418.59, 938.35 418.54, 937.89 419.11" style="stroke: black; fill: black;"/><path d="M 948.78,380.17 C 949.10 380.10, 949.14 379.78, 948.85 379.64 C 948.55 379.49, 947.64 379.38, 947.32 379.45 C 947.00 379.52, 946.97 379.84, 947.26 379.98 C 947.55 380.13, 948.47 380.24, 948.78 380.17" style="stroke: black; fill: black;"/><path d="M 972.75,419.53 C 972.32 420.10, 972.19 420.85, 971.81 422.48 C 971.43 424.10, 971.22 425.16, 970.85 427.65 C 970.48 430.14, 970.39 431.95, 969.96 434.93 C 969.52 437.91, 969.20 439.60, 968.67 442.57 C 968.14 445.53, 967.78 447.15, 967.31 449.75 C 966.84 452.35, 966.43 453.67, 966.31 455.58 C 966.19 457.49, 966.40 458.45, 966.73 459.30 C 967.06 460.16, 967.67 459.81, 967.96 459.86 C 968.25 459.91, 968.15 459.70, 968.18 459.56 C 968.20 459.42, 967.92 459.88, 968.11 459.18 C 968.29 458.47, 968.64 457.78, 969.10 456.02 C 969.57 454.26, 969.89 452.93, 970.43 450.36 C 970.97 447.79, 971.22 446.13, 971.81 443.16 C 972.40 440.18, 972.86 438.50, 973.40 435.49 C 973.93 432.47, 974.27 430.64, 974.50 428.08 C 974.72 425.52, 974.62 424.40, 974.52 422.70 C 974.42 421.01, 974.33 420.24, 973.98 419.61 C 973.63 418.97, 973.19 418.95, 972.75 419.53" style="stroke: black; fill: black;"/><path d="M 982.53,429.35 C 983.39 429.10, 984.32 428.22, 985.90 427.16 C 987.48 426.11, 988.48 425.23, 990.42 424.07 C 992.36 422.92, 993.57 422.13, 995.58 421.40 C 997.59 420.67, 998.62 420.47, 1000.48 420.43 C 1002.33 420.40, 1003.28 420.57, 1004.86 421.23 C 1006.44 421.90, 1007.16 422.28, 1008.38 423.76 C 1009.59 425.23, 1010.11 426.27, 1010.92 428.60 C 1011.72 430.93, 1012.03 432.40, 1012.39 435.41 C 1012.75 438.43, 1012.75 440.30, 1012.74 443.67 C 1012.72 447.05, 1012.47 449.22, 1012.31 452.31 C 1012.14 455.40, 1011.94 456.93, 1011.93 459.13 C 1011.92 461.32, 1011.99 462.43, 1012.25 463.28 C 1012.50 464.13, 1012.79 464.15, 1013.20 463.37 C 1013.61 462.59, 1013.88 461.54, 1014.31 459.36 C 1014.73 457.19, 1015.07 455.65, 1015.33 452.51 C 1015.59 449.37, 1015.59 447.17, 1015.61 443.69 C 1015.62 440.20, 1015.74 438.30, 1015.40 435.07 C 1015.06 431.84, 1014.89 430.17, 1013.92 427.53 C 1012.94 424.89, 1012.13 423.64, 1010.53 421.89 C 1008.93 420.13, 1007.92 419.62, 1005.92 418.75 C 1003.92 417.88, 1002.81 417.65, 1000.53 417.54 C 998.25 417.43, 996.94 417.51, 994.54 418.21 C 992.15 418.91, 990.67 419.69, 988.55 421.03 C 986.43 422.36, 985.36 423.41, 983.96 424.88 C 982.57 426.36, 981.87 427.49, 981.58 428.39 C 981.29 429.28, 981.66 429.59, 982.53 429.35" style="stroke: black; fill: black;"/><path d="M 1067.27,426.82 C 1067.09 426.26, 1066.67 425.78, 1065.74 425.12 C 1064.82 424.46, 1064.19 424.02, 1062.63 423.54 C 1061.07 423.05, 1059.99 422.75, 1057.94 422.71 C 1055.88 422.66, 1054.65 422.72, 1052.34 423.31 C 1050.02 423.91, 1048.67 424.43, 1046.35 425.69 C 1044.02 426.95, 1042.73 427.78, 1040.71 429.61 C 1038.70 431.45, 1037.69 432.65, 1036.28 434.86 C 1034.86 437.08, 1034.25 438.35, 1033.63 440.68 C 1033.00 443.01, 1032.84 444.38, 1033.15 446.50 C 1033.45 448.63, 1033.89 449.79, 1035.15 451.32 C 1036.42 452.86, 1037.41 453.50, 1039.45 454.16 C 1041.49 454.82, 1042.81 454.96, 1045.35 454.62 C 1047.89 454.27, 1049.38 453.71, 1052.14 452.42 C 1054.91 451.13, 1056.40 450.04, 1059.19 448.19 C 1061.98 446.34, 1063.53 445.17, 1066.09 443.15 C 1068.64 441.13, 1069.96 439.93, 1071.96 438.08 C 1073.97 436.24, 1074.78 435.25, 1076.09 433.92 C 1077.40 432.59, 1077.87 432.01, 1078.52 431.45 C 1079.17 430.88, 1079.18 430.74, 1079.33 431.09 C 1079.48 431.43, 1079.31 431.80, 1079.28 433.18 C 1079.25 434.56, 1079.14 435.54, 1079.19 437.99 C 1079.23 440.45, 1079.48 442.04, 1079.51 445.45 C 1079.54 448.86, 1079.52 450.87, 1079.35 455.04 C 1079.19 459.21, 1079.07 461.67, 1078.68 466.29 C 1078.28 470.92, 1078.08 473.46, 1077.38 478.18 C 1076.68 482.89, 1076.26 485.35, 1075.18 489.88 C 1074.10 494.40, 1073.48 496.75, 1071.98 500.79 C 1070.48 504.82, 1069.60 506.78, 1067.67 510.04 C 1065.74 513.31, 1064.61 514.77, 1062.32 517.12 C 1060.03 519.47, 1058.79 520.43, 1056.21 521.80 C 1053.64 523.18, 1052.23 523.58, 1049.43 523.99 C 1046.64 524.40, 1045.11 524.30, 1042.24 523.86 C 1039.36 523.43, 1037.85 523.02, 1035.05 521.83 C 1032.25 520.65, 1030.72 519.74, 1028.25 517.95 C 1025.79 516.15, 1024.55 515.02, 1022.73 512.87 C 1020.90 510.72, 1020.11 509.57, 1019.13 507.20 C 1018.16 504.83, 1017.89 503.49, 1017.85 501.02 C 1017.81 498.54, 1018.04 497.25, 1018.93 494.81 C 1019.81 492.38, 1020.45 491.15, 1022.27 488.86 C 1024.10 486.57, 1025.29 485.41, 1028.07 483.37 C 1030.85 481.34, 1032.56 480.36, 1036.16 478.70 C 1039.77 477.03, 1041.94 476.32, 1046.11 475.06 C 1050.28 473.80, 1052.59 473.26, 1057.01 472.40 C 1061.42 471.53, 1063.80 471.23, 1068.19 470.73 C 1072.58 470.24, 1074.91 470.15, 1078.95 469.91 C 1082.98 469.67, 1084.87 469.64, 1088.37 469.54 C 1091.88 469.44, 1093.50 469.52, 1096.47 469.42 C 1099.44 469.32, 1100.88 469.33, 1103.21 469.04 C 1105.53 468.75, 1106.53 468.41, 1108.09 467.98 C 1109.65 467.54, 1110.46 467.28, 1111.02 466.86 C 1111.57 466.45, 1111.51 466.12, 1110.85 465.92 C 1110.20 465.71, 1109.33 465.78, 1107.74 465.85 C 1106.16 465.93, 1105.21 466.12, 1102.93 466.30 C 1100.65 466.47, 1099.27 466.55, 1096.34 466.73 C 1093.41 466.92, 1091.77 467.01, 1088.27 467.23 C 1084.76 467.44, 1082.87 467.51, 1078.81 467.81 C 1074.74 468.12, 1072.40 468.22, 1067.96 468.75 C 1063.53 469.27, 1061.12 469.58, 1056.63 470.44 C 1052.14 471.30, 1049.79 471.81, 1045.51 473.05 C 1041.23 474.29, 1039.01 474.97, 1035.23 476.62 C 1031.45 478.28, 1029.63 479.23, 1026.61 481.33 C 1023.59 483.43, 1022.22 484.61, 1020.14 487.11 C 1018.05 489.61, 1017.21 491.01, 1016.18 493.81 C 1015.15 496.60, 1014.93 498.17, 1014.99 501.07 C 1015.04 503.97, 1015.36 505.56, 1016.48 508.29 C 1017.59 511.02, 1018.53 512.33, 1020.56 514.71 C 1022.59 517.09, 1023.94 518.27, 1026.62 520.20 C 1029.30 522.14, 1030.94 523.10, 1033.98 524.37 C 1037.03 525.65, 1038.67 526.12, 1041.84 526.58 C 1045.02 527.03, 1046.73 527.15, 1049.85 526.63 C 1052.96 526.12, 1054.59 525.59, 1057.42 524.00 C 1060.25 522.42, 1061.57 521.29, 1063.99 518.71 C 1066.40 516.13, 1067.52 514.55, 1069.49 511.10 C 1071.45 507.65, 1072.31 505.62, 1073.81 501.46 C 1075.32 497.30, 1075.92 494.91, 1077.01 490.31 C 1078.10 485.71, 1078.52 483.23, 1079.26 478.46 C 1080.00 473.70, 1080.22 471.14, 1080.71 466.49 C 1081.20 461.83, 1081.35 459.38, 1081.71 455.19 C 1082.06 451.00, 1082.27 448.99, 1082.49 445.53 C 1082.71 442.07, 1082.92 440.45, 1082.83 437.89 C 1082.74 435.33, 1082.55 434.29, 1082.04 432.72 C 1081.53 431.15, 1081.15 430.63, 1080.28 430.04 C 1079.40 429.46, 1078.87 429.43, 1077.68 429.80 C 1076.49 430.18, 1075.88 430.71, 1074.32 431.90 C 1072.76 433.10, 1071.90 434.00, 1069.89 435.79 C 1067.88 437.58, 1066.72 438.88, 1064.26 440.86 C 1061.79 442.84, 1060.26 443.97, 1057.56 445.69 C 1054.86 447.41, 1053.31 448.27, 1050.77 449.44 C 1048.22 450.60, 1046.96 451.10, 1044.84 451.52 C 1042.73 451.94, 1041.74 451.89, 1040.20 451.53 C 1038.66 451.17, 1037.99 450.78, 1037.12 449.71 C 1036.26 448.65, 1036.00 447.83, 1035.87 446.19 C 1035.75 444.55, 1035.87 443.43, 1036.48 441.50 C 1037.08 439.58, 1037.60 438.47, 1038.89 436.58 C 1040.17 434.69, 1041.09 433.64, 1042.90 432.05 C 1044.71 430.47, 1045.88 429.73, 1047.93 428.63 C 1049.99 427.54, 1051.18 427.07, 1053.16 426.58 C 1055.14 426.09, 1056.13 426.14, 1057.84 426.19 C 1059.56 426.24, 1060.40 426.57, 1061.75 426.85 C 1063.10 427.14, 1063.62 427.40, 1064.59 427.62 C 1065.57 427.84, 1066.10 428.11, 1066.63 427.95 C 1067.17 427.79, 1067.45 427.39, 1067.27 426.82" style="stroke: black; fill: black;"/><path d="M 1233.96,373.01 C 1233.67 373.62, 1233.74 374.22, 1233.64 375.90 C 1233.55 377.58, 1233.48 378.61, 1233.49 381.41 C 1233.49 384.20, 1233.78 386.01, 1233.66 389.88 C 1233.53 393.76, 1233.32 396.05, 1232.87 400.79 C 1232.42 405.53, 1232.02 408.26, 1231.38 413.59 C 1230.74 418.93, 1230.39 421.94, 1229.66 427.46 C 1228.93 432.97, 1228.46 435.95, 1227.74 441.16 C 1227.03 446.38, 1226.67 449.02, 1226.09 453.53 C 1225.51 458.04, 1225.19 460.22, 1224.85 463.73 C 1224.50 467.25, 1224.37 468.81, 1224.37 471.09 C 1224.37 473.38, 1224.58 474.35, 1224.85 475.17 C 1225.12 475.99, 1225.39 475.98, 1225.71 475.19 C 1226.02 474.40, 1226.14 473.47, 1226.42 471.22 C 1226.69 468.97, 1226.77 467.43, 1227.08 463.94 C 1227.38 460.45, 1227.47 458.25, 1227.94 453.74 C 1228.41 449.23, 1228.75 446.60, 1229.42 441.39 C 1230.10 436.17, 1230.57 433.19, 1231.32 427.68 C 1232.06 422.16, 1232.43 419.15, 1233.15 413.82 C 1233.87 408.49, 1234.30 405.78, 1234.92 401.02 C 1235.55 396.27, 1235.86 393.98, 1236.27 390.06 C 1236.68 386.14, 1236.96 384.28, 1236.96 381.40 C 1236.95 378.53, 1236.61 377.40, 1236.25 375.69 C 1235.88 373.98, 1235.58 373.38, 1235.12 372.84 C 1234.67 372.31, 1234.26 372.40, 1233.96 373.01" style="stroke: black; fill: black;"/><path d="M 1217.44,425.76 C 1217.93 426.09, 1218.34 426.13, 1219.79 426.28 C 1221.24 426.43, 1222.25 426.59, 1224.71 426.51 C 1227.17 426.44, 1228.87 426.18, 1232.11 425.92 C 1235.34 425.66, 1237.33 425.48, 1240.89 425.21 C 1244.46 424.93, 1246.63 424.82, 1249.94 424.55 C 1253.24 424.27, 1254.99 424.20, 1257.41 423.83 C 1259.83 423.46, 1261.13 423.12, 1262.03 422.69 C 1262.94 422.26, 1262.91 421.95, 1261.95 421.68 C 1260.98 421.41, 1259.66 421.34, 1257.22 421.34 C 1254.77 421.34, 1253.03 421.48, 1249.73 421.69 C 1246.43 421.89, 1244.27 422.18, 1240.71 422.36 C 1237.15 422.55, 1235.17 422.52, 1231.93 422.62 C 1228.68 422.72, 1226.96 422.64, 1224.50 422.85 C 1222.03 423.06, 1221.03 423.31, 1219.60 423.67 C 1218.17 424.03, 1217.76 424.23, 1217.33 424.65 C 1216.89 425.07, 1216.95 425.44, 1217.44 425.76" style="stroke: black; fill: black;"/><path d="M 1281.76,420.04 C 1281.38 420.54, 1281.30 421.03, 1281.03 422.51 C 1280.76 423.98, 1280.59 425.02, 1280.41 427.42 C 1280.24 429.83, 1280.35 431.43, 1280.17 434.52 C 1279.98 437.62, 1279.90 439.51, 1279.50 442.90 C 1279.11 446.28, 1278.75 448.20, 1278.18 451.43 C 1277.60 454.66, 1277.05 456.41, 1276.61 459.06 C 1276.17 461.70, 1276.09 462.90, 1275.96 464.66 C 1275.83 466.41, 1275.78 467.16, 1275.95 467.83 C 1276.12 468.50, 1276.38 468.56, 1276.80 468.01 C 1277.22 467.46, 1277.48 466.75, 1278.05 465.08 C 1278.61 463.41, 1279.03 462.27, 1279.61 459.64 C 1280.20 457.01, 1280.43 455.19, 1280.98 451.92 C 1281.53 448.65, 1281.86 446.70, 1282.37 443.28 C 1282.88 439.86, 1283.20 437.94, 1283.53 434.80 C 1283.87 431.66, 1284.01 430.03, 1284.05 427.58 C 1284.08 425.13, 1283.94 424.06, 1283.71 422.54 C 1283.48 421.03, 1283.30 420.52, 1282.91 420.02 C 1282.52 419.52, 1282.13 419.54, 1281.76 420.04" style="stroke: black; fill: black;"/><path d="M 1290.19,383.81 C 1290.69 383.74, 1291.06 383.46, 1291.15 383.30 C 1291.24 383.15, 1290.86 383.15, 1290.65 383.04 C 1290.44 382.94, 1290.34 382.99, 1290.09 382.78 C 1289.84 382.57, 1289.74 382.13, 1289.39 382.02 C 1289.04 381.90, 1288.67 381.99, 1288.34 382.19 C 1288.02 382.39, 1287.70 382.73, 1287.76 383.03 C 1287.81 383.33, 1288.14 383.53, 1288.63 383.69 C 1289.11 383.84, 1289.68 383.89, 1290.19 383.81" style="stroke: black; fill: black;"/><path d="M 1315.14,422.93 C 1314.80 423.47, 1314.85 424.05, 1314.63 425.50 C 1314.42 426.94, 1314.30 427.93, 1314.06 430.15 C 1313.83 432.38, 1313.73 433.87, 1313.45 436.63 C 1313.18 439.38, 1313.08 440.99, 1312.71 443.92 C 1312.33 446.86, 1312.01 448.49, 1311.56 451.31 C 1311.12 454.13, 1310.78 455.66, 1310.50 458.03 C 1310.21 460.39, 1310.06 461.51, 1310.13 463.12 C 1310.20 464.73, 1310.31 465.38, 1310.84 466.08 C 1311.37 466.78, 1311.86 467.00, 1312.78 466.63 C 1313.69 466.26, 1314.31 465.79, 1315.43 464.23 C 1316.55 462.68, 1317.09 461.47, 1318.37 458.87 C 1319.66 456.27, 1320.23 454.44, 1321.85 451.22 C 1323.47 448.01, 1324.49 446.09, 1326.48 442.79 C 1328.47 439.49, 1329.61 437.62, 1331.80 434.71 C 1333.99 431.80, 1335.28 430.42, 1337.43 428.24 C 1339.58 426.07, 1340.69 425.19, 1342.54 423.85 C 1344.40 422.51, 1345.28 422.05, 1346.72 421.55 C 1348.16 421.05, 1348.71 420.96, 1349.74 421.34 C 1350.77 421.72, 1351.20 422.14, 1351.86 423.45 C 1352.53 424.77, 1352.72 425.71, 1353.07 427.92 C 1353.42 430.14, 1353.56 431.61, 1353.61 434.51 C 1353.66 437.41, 1353.56 439.29, 1353.31 442.41 C 1353.06 445.53, 1352.64 447.32, 1352.35 450.11 C 1352.07 452.90, 1351.84 454.33, 1351.89 456.34 C 1351.95 458.34, 1352.01 459.22, 1352.64 460.14 C 1353.26 461.06, 1353.83 461.28, 1355.03 460.92 C 1356.23 460.56, 1357.08 460.02, 1358.63 458.34 C 1360.19 456.66, 1360.92 455.22, 1362.80 452.51 C 1364.68 449.81, 1365.73 447.93, 1368.02 444.82 C 1370.31 441.70, 1371.73 439.88, 1374.26 436.93 C 1376.79 433.99, 1378.17 432.38, 1380.66 430.09 C 1383.14 427.80, 1384.50 426.90, 1386.69 425.50 C 1388.89 424.10, 1389.90 423.60, 1391.63 423.08 C 1393.35 422.55, 1394.06 422.50, 1395.32 422.87 C 1396.57 423.24, 1397.05 423.63, 1397.89 424.91 C 1398.73 426.20, 1398.97 427.08, 1399.49 429.28 C 1400.02 431.49, 1400.27 432.94, 1400.50 435.92 C 1400.74 438.90, 1400.73 440.78, 1400.67 444.19 C 1400.61 447.60, 1400.39 449.58, 1400.22 452.96 C 1400.04 456.33, 1399.74 458.16, 1399.79 461.07 C 1399.83 463.98, 1400.05 465.42, 1400.45 467.53 C 1400.86 469.63, 1401.22 470.41, 1401.80 471.60 C 1402.37 472.79, 1402.77 473.05, 1403.32 473.47 C 1403.87 473.89, 1404.25 473.75, 1404.54 473.69 C 1404.83 473.62, 1404.82 473.35, 1404.78 473.13 C 1404.73 472.92, 1404.50 473.08, 1404.32 472.63 C 1404.13 472.17, 1404.09 471.97, 1403.85 470.87 C 1403.62 469.77, 1403.34 469.09, 1403.13 467.12 C 1402.92 465.16, 1402.83 463.84, 1402.80 461.03 C 1402.78 458.22, 1402.85 456.44, 1403.00 453.09 C 1403.14 449.74, 1403.39 447.75, 1403.53 444.27 C 1403.68 440.79, 1403.89 438.87, 1403.70 435.70 C 1403.51 432.53, 1403.34 430.91, 1402.59 428.44 C 1401.84 425.97, 1401.27 424.88, 1399.94 423.34 C 1398.61 421.80, 1397.73 421.25, 1395.94 420.73 C 1394.16 420.21, 1393.16 420.24, 1391.01 420.72 C 1388.87 421.21, 1387.62 421.65, 1385.21 423.15 C 1382.79 424.66, 1381.50 425.82, 1378.94 428.25 C 1376.38 430.69, 1375.02 432.35, 1372.41 435.33 C 1369.80 438.32, 1368.36 440.14, 1365.90 443.18 C 1363.43 446.22, 1362.05 447.92, 1360.07 450.53 C 1358.09 453.15, 1357.18 454.46, 1355.99 456.25 C 1354.80 458.05, 1354.54 458.83, 1354.12 459.52 C 1353.70 460.20, 1353.80 460.29, 1353.91 459.70 C 1354.01 459.11, 1354.29 458.39, 1354.64 456.54 C 1354.99 454.70, 1355.28 453.27, 1355.64 450.49 C 1356.00 447.72, 1356.18 445.87, 1356.45 442.67 C 1356.72 439.46, 1357.02 437.55, 1357.00 434.47 C 1356.97 431.39, 1356.91 429.77, 1356.34 427.28 C 1355.76 424.79, 1355.30 423.62, 1354.12 422.02 C 1352.95 420.43, 1352.07 419.85, 1350.46 419.30 C 1348.85 418.75, 1347.96 418.83, 1346.06 419.30 C 1344.17 419.76, 1343.11 420.22, 1341.01 421.64 C 1338.90 423.05, 1337.76 424.06, 1335.52 426.39 C 1333.29 428.71, 1332.06 430.22, 1329.83 433.24 C 1327.59 436.26, 1326.44 438.15, 1324.34 441.47 C 1322.24 444.79, 1321.19 446.70, 1319.32 449.83 C 1317.45 452.96, 1316.34 454.57, 1314.98 457.13 C 1313.62 459.69, 1313.16 460.94, 1312.50 462.63 C 1311.84 464.31, 1311.80 464.91, 1311.70 465.54 C 1311.61 466.16, 1311.83 466.19, 1312.03 465.74 C 1312.23 465.30, 1312.41 464.77, 1312.71 463.31 C 1313.01 461.86, 1313.13 460.78, 1313.54 458.48 C 1313.95 456.18, 1314.28 454.65, 1314.75 451.83 C 1315.23 449.01, 1315.44 447.35, 1315.92 444.39 C 1316.40 441.43, 1316.79 439.85, 1317.14 437.04 C 1317.50 434.24, 1317.65 432.69, 1317.70 430.37 C 1317.74 428.06, 1317.64 426.96, 1317.36 425.45 C 1317.09 423.93, 1316.78 423.31, 1316.33 422.81 C 1315.89 422.31, 1315.48 422.39, 1315.14 422.93" style="stroke: black; fill: black;"/><path d="M 1428.76,449.66 C 1429.25 450.15, 1429.91 450.64, 1431.44 450.93 C 1432.97 451.21, 1434.13 451.32, 1436.42 451.07 C 1438.70 450.82, 1440.19 450.56, 1442.88 449.66 C 1445.58 448.75, 1447.11 447.94, 1449.89 446.53 C 1452.67 445.13, 1454.16 444.24, 1456.79 442.62 C 1459.42 441.00, 1460.81 440.12, 1463.04 438.43 C 1465.26 436.74, 1466.30 435.84, 1467.92 434.18 C 1469.55 432.52, 1470.28 431.77, 1471.15 430.14 C 1472.02 428.51, 1472.34 427.60, 1472.28 426.04 C 1472.21 424.47, 1471.89 423.55, 1470.83 422.30 C 1469.77 421.06, 1468.91 420.50, 1466.99 419.81 C 1465.06 419.13, 1463.78 418.88, 1461.20 418.87 C 1458.62 418.86, 1457.04 419.03, 1454.08 419.76 C 1451.12 420.50, 1449.48 421.14, 1446.42 422.53 C 1443.36 423.92, 1441.63 424.77, 1438.79 426.71 C 1435.95 428.65, 1434.48 429.80, 1432.22 432.23 C 1429.95 434.66, 1428.87 436.02, 1427.47 438.86 C 1426.06 441.69, 1425.49 443.37, 1425.19 446.40 C 1424.89 449.43, 1425.03 451.09, 1425.96 454.00 C 1426.90 456.92, 1427.77 458.41, 1429.84 460.97 C 1431.92 463.53, 1433.31 464.78, 1436.36 466.81 C 1439.42 468.83, 1441.34 469.73, 1445.12 471.10 C 1448.89 472.46, 1451.03 472.98, 1455.24 473.63 C 1459.45 474.27, 1462.09 474.27, 1466.16 474.34 C 1470.23 474.41, 1472.48 474.38, 1475.59 473.98 C 1478.70 473.57, 1480.52 472.86, 1481.71 472.32 C 1482.90 471.77, 1482.80 471.38, 1481.53 471.24 C 1480.27 471.10, 1478.44 471.48, 1475.38 471.63 C 1472.31 471.79, 1470.15 472.05, 1466.19 472.00 C 1462.23 471.96, 1459.63 472.04, 1455.58 471.42 C 1451.52 470.80, 1449.48 470.26, 1445.92 468.92 C 1442.36 467.58, 1440.57 466.64, 1437.77 464.71 C 1434.98 462.79, 1433.78 461.59, 1431.96 459.28 C 1430.13 456.97, 1429.45 455.67, 1428.66 453.15 C 1427.87 450.63, 1427.75 449.29, 1428.00 446.68 C 1428.26 444.06, 1428.70 442.60, 1429.94 440.08 C 1431.18 437.56, 1432.12 436.29, 1434.20 434.07 C 1436.27 431.85, 1437.64 430.76, 1440.32 428.98 C 1443.00 427.21, 1444.68 426.41, 1447.58 425.21 C 1450.48 424.01, 1452.10 423.58, 1454.83 423.00 C 1457.56 422.42, 1458.97 422.35, 1461.23 422.30 C 1463.49 422.25, 1464.56 422.41, 1466.13 422.75 C 1467.69 423.09, 1468.28 423.33, 1469.07 424.00 C 1469.85 424.67, 1470.05 425.11, 1470.04 426.08 C 1470.02 427.05, 1469.81 427.64, 1468.99 428.85 C 1468.18 430.06, 1467.51 430.71, 1465.95 432.13 C 1464.38 433.55, 1463.33 434.36, 1461.18 435.94 C 1459.03 437.51, 1457.73 438.47, 1455.19 440.02 C 1452.66 441.56, 1451.19 442.42, 1448.50 443.65 C 1445.81 444.89, 1444.28 445.40, 1441.76 446.19 C 1439.23 446.97, 1437.93 447.17, 1435.89 447.57 C 1433.84 447.97, 1432.92 448.01, 1431.54 448.19 C 1430.16 448.37, 1429.55 448.16, 1429.00 448.45 C 1428.44 448.74, 1428.27 449.16, 1428.76 449.66" style="stroke: black; fill: black;"/><path d="M 1529.58,466.81 C 1529.21 467.20, 1529.31 467.52, 1528.80 468.84 C 1528.30 470.17, 1527.93 470.95, 1527.06 473.42 C 1526.19 475.90, 1525.79 477.84, 1524.45 481.23 C 1523.11 484.63, 1522.11 486.81, 1520.36 490.39 C 1518.62 493.97, 1517.30 496.05, 1515.71 499.14 C 1514.12 502.24, 1513.30 503.72, 1512.39 505.86 C 1511.48 508.01, 1511.25 508.98, 1511.16 509.86 C 1511.07 510.74, 1511.30 510.85, 1511.95 510.25 C 1512.59 509.66, 1513.16 508.87, 1514.39 506.90 C 1515.62 504.93, 1516.42 503.47, 1518.08 500.40 C 1519.75 497.33, 1520.89 495.16, 1522.71 491.56 C 1524.54 487.96, 1525.64 485.81, 1527.21 482.42 C 1528.78 479.02, 1529.74 477.20, 1530.55 474.57 C 1531.36 471.95, 1531.24 470.84, 1531.26 469.29 C 1531.28 467.75, 1531.00 467.35, 1530.66 466.85 C 1530.32 466.35, 1529.95 466.41, 1529.58 466.81" style="stroke: black; fill: black;"/><path d="M 1638.06,434.86 C 1638.02 434.29, 1637.76 433.76, 1637.02 432.97 C 1636.28 432.17, 1635.75 431.59, 1634.36 430.90 C 1632.97 430.20, 1631.99 429.77, 1630.09 429.50 C 1628.18 429.24, 1627.08 429.23, 1624.83 429.57 C 1622.58 429.92, 1621.35 430.16, 1618.84 431.23 C 1616.32 432.30, 1614.88 433.07, 1612.25 434.92 C 1609.61 436.77, 1608.17 437.97, 1605.68 440.49 C 1603.18 443.01, 1601.87 444.55, 1599.78 447.51 C 1597.69 450.46, 1596.67 452.19, 1595.23 455.26 C 1593.79 458.32, 1593.14 460.01, 1592.57 462.83 C 1592.00 465.65, 1591.97 467.13, 1592.38 469.37 C 1592.80 471.62, 1593.29 472.67, 1594.64 474.03 C 1595.98 475.39, 1597.01 475.91, 1599.08 476.18 C 1601.16 476.46, 1602.49 476.36, 1605.01 475.40 C 1607.53 474.45, 1608.91 473.53, 1611.68 471.40 C 1614.46 469.27, 1615.95 467.84, 1618.91 464.76 C 1621.86 461.67, 1623.49 459.87, 1626.48 455.97 C 1629.46 452.08, 1630.99 449.77, 1633.82 445.27 C 1636.65 440.78, 1638.06 438.29, 1640.63 433.50 C 1643.20 428.71, 1644.47 426.11, 1646.69 421.34 C 1648.90 416.57, 1649.92 414.06, 1651.70 409.63 C 1653.47 405.21, 1654.22 402.93, 1655.55 399.22 C 1656.89 395.51, 1657.74 393.71, 1658.38 391.09 C 1659.02 388.47, 1659.00 387.20, 1658.77 386.11 C 1658.53 385.01, 1658.02 384.79, 1657.20 385.62 C 1656.37 386.45, 1655.62 387.42, 1654.63 390.27 C 1653.63 393.12, 1653.29 395.40, 1652.21 399.88 C 1651.14 404.35, 1650.46 407.29, 1649.26 412.65 C 1648.05 418.00, 1647.29 421.12, 1646.21 426.65 C 1645.13 432.18, 1644.60 435.19, 1643.86 440.28 C 1643.12 445.38, 1642.86 447.88, 1642.49 452.15 C 1642.13 456.42, 1641.98 458.45, 1642.04 461.63 C 1642.11 464.82, 1642.40 466.15, 1642.80 468.09 C 1643.20 470.03, 1643.63 470.70, 1644.03 471.31 C 1644.43 471.93, 1644.68 471.85, 1644.81 471.15 C 1644.95 470.46, 1644.78 469.77, 1644.71 467.86 C 1644.63 465.94, 1644.50 464.71, 1644.44 461.59 C 1644.39 458.47, 1644.19 456.49, 1644.42 452.28 C 1644.64 448.07, 1644.87 445.58, 1645.56 440.53 C 1646.26 435.47, 1646.78 432.47, 1647.89 426.98 C 1649.00 421.50, 1649.76 418.38, 1651.12 413.09 C 1652.47 407.80, 1653.32 404.91, 1654.64 400.53 C 1655.96 396.16, 1656.95 394.10, 1657.72 391.22 C 1658.48 388.34, 1658.50 387.21, 1658.46 386.15 C 1658.42 385.09, 1658.07 385.07, 1657.53 385.91 C 1656.98 386.75, 1656.54 387.83, 1655.74 390.35 C 1654.94 392.88, 1654.69 394.83, 1653.54 398.55 C 1652.40 402.28, 1651.69 404.56, 1650.01 408.97 C 1648.33 413.39, 1647.32 415.89, 1645.15 420.63 C 1642.98 425.38, 1641.72 427.97, 1639.16 432.71 C 1636.59 437.44, 1635.18 439.92, 1632.34 444.33 C 1629.49 448.74, 1627.95 451.01, 1624.94 454.77 C 1621.93 458.53, 1620.26 460.26, 1617.28 463.13 C 1614.29 466.00, 1612.69 467.24, 1610.01 469.11 C 1607.33 470.99, 1606.00 471.60, 1603.86 472.51 C 1601.71 473.41, 1600.81 473.66, 1599.28 473.66 C 1597.75 473.65, 1597.10 473.42, 1596.22 472.49 C 1595.34 471.57, 1595.04 470.83, 1594.88 469.02 C 1594.73 467.21, 1594.87 465.96, 1595.43 463.43 C 1595.99 460.91, 1596.38 459.27, 1597.68 456.38 C 1598.98 453.50, 1599.93 451.81, 1601.92 449.03 C 1603.90 446.24, 1605.20 444.77, 1607.61 442.45 C 1610.02 440.14, 1611.47 439.09, 1613.97 437.45 C 1616.47 435.82, 1617.84 435.21, 1620.11 434.28 C 1622.38 433.34, 1623.42 433.05, 1625.32 432.77 C 1627.21 432.49, 1628.06 432.62, 1629.58 432.87 C 1631.10 433.12, 1631.77 433.56, 1632.93 434.03 C 1634.10 434.50, 1634.53 434.86, 1635.39 435.22 C 1636.25 435.58, 1636.69 435.90, 1637.22 435.83 C 1637.76 435.76, 1638.10 435.43, 1638.06 434.86" style="stroke: black; fill: black;"/><path d="M 1705.28,432.54 C 1705.04 432.00, 1704.57 431.56, 1703.57 431.04 C 1702.57 430.53, 1701.94 430.20, 1700.30 429.97 C 1698.66 429.73, 1697.53 429.52, 1695.37 429.87 C 1693.22 430.21, 1691.92 430.57, 1689.52 431.69 C 1687.12 432.82, 1685.78 433.60, 1683.37 435.49 C 1680.96 437.38, 1679.62 438.65, 1677.45 441.14 C 1675.28 443.63, 1674.10 445.10, 1672.51 447.92 C 1670.91 450.75, 1670.16 452.40, 1669.46 455.28 C 1668.77 458.16, 1668.69 459.75, 1669.05 462.31 C 1669.41 464.87, 1669.89 466.14, 1671.28 468.08 C 1672.67 470.01, 1673.72 470.91, 1676.00 471.97 C 1678.28 473.03, 1679.77 473.35, 1682.68 473.37 C 1685.58 473.38, 1687.30 473.02, 1690.51 472.05 C 1693.73 471.08, 1695.54 470.32, 1698.76 468.54 C 1701.98 466.75, 1703.75 465.52, 1706.61 463.11 C 1709.47 460.70, 1710.85 459.22, 1713.05 456.48 C 1715.26 453.73, 1716.27 452.09, 1717.64 449.37 C 1719.00 446.65, 1719.54 445.28, 1719.88 442.88 C 1720.23 440.48, 1720.11 439.25, 1719.36 437.37 C 1718.62 435.49, 1717.84 434.60, 1716.15 433.48 C 1714.46 432.36, 1713.24 432.06, 1710.92 431.77 C 1708.59 431.49, 1707.00 431.67, 1704.54 432.05 C 1702.08 432.42, 1700.57 432.90, 1698.63 433.64 C 1696.70 434.38, 1695.95 434.99, 1694.85 435.72 C 1693.76 436.46, 1693.42 436.85, 1693.15 437.32 C 1692.89 437.78, 1693.02 437.97, 1693.52 438.05 C 1694.03 438.12, 1694.47 437.92, 1695.68 437.67 C 1696.89 437.43, 1697.70 437.24, 1699.59 436.83 C 1701.48 436.42, 1702.89 436.00, 1705.11 435.62 C 1707.34 435.24, 1708.75 434.94, 1710.70 434.94 C 1712.65 434.95, 1713.57 434.99, 1714.87 435.65 C 1716.17 436.30, 1716.70 436.84, 1717.20 438.20 C 1717.69 439.55, 1717.74 440.45, 1717.32 442.43 C 1716.90 444.41, 1716.36 445.60, 1715.10 448.09 C 1713.84 450.58, 1713.05 452.26, 1711.03 454.88 C 1709.00 457.49, 1707.69 458.91, 1704.99 461.18 C 1702.28 463.45, 1700.55 464.60, 1697.50 466.21 C 1694.44 467.83, 1692.68 468.46, 1689.72 469.27 C 1686.75 470.07, 1685.19 470.21, 1682.67 470.24 C 1680.14 470.28, 1678.96 470.17, 1677.10 469.43 C 1675.25 468.69, 1674.45 468.05, 1673.38 466.56 C 1672.31 465.08, 1671.96 464.10, 1671.76 461.99 C 1671.56 459.87, 1671.72 458.53, 1672.38 456.01 C 1673.04 453.48, 1673.58 451.93, 1675.04 449.36 C 1676.50 446.78, 1677.61 445.38, 1679.67 443.12 C 1681.73 440.87, 1683.09 439.75, 1685.34 438.08 C 1687.60 436.41, 1688.83 435.74, 1690.94 434.79 C 1693.06 433.83, 1694.12 433.59, 1695.93 433.30 C 1697.73 433.00, 1698.60 433.24, 1699.97 433.31 C 1701.34 433.37, 1701.82 433.54, 1702.78 433.63 C 1703.74 433.71, 1704.27 433.94, 1704.76 433.73 C 1705.26 433.51, 1705.52 433.07, 1705.28 432.54" style="stroke: black; fill: black;"/><path d="M 1768.76,443.06 C 1768.81 442.42, 1768.69 441.67, 1767.95 440.58 C 1767.21 439.49, 1766.58 438.67, 1765.08 437.60 C 1763.57 436.52, 1762.48 435.81, 1760.41 435.19 C 1758.33 434.57, 1757.10 434.44, 1754.70 434.49 C 1752.31 434.54, 1750.95 434.71, 1748.42 435.45 C 1745.90 436.18, 1744.46 436.77, 1742.08 438.16 C 1739.69 439.54, 1738.39 440.51, 1736.49 442.36 C 1734.60 444.21, 1733.67 445.38, 1732.59 447.43 C 1731.51 449.47, 1731.11 450.65, 1731.08 452.57 C 1731.05 454.50, 1731.36 455.57, 1732.43 457.05 C 1733.49 458.53, 1734.44 459.28, 1736.42 459.99 C 1738.39 460.70, 1739.73 460.83, 1742.30 460.61 C 1744.86 460.39, 1746.43 459.90, 1749.25 458.89 C 1752.07 457.88, 1753.58 457.00, 1756.40 455.54 C 1759.22 454.08, 1760.76 453.14, 1763.36 451.59 C 1765.96 450.03, 1767.22 449.11, 1769.40 447.75 C 1771.57 446.39, 1772.63 445.69, 1774.24 444.80 C 1775.85 443.90, 1776.45 443.46, 1777.46 443.27 C 1778.47 443.09, 1778.72 443.10, 1779.28 443.86 C 1779.84 444.62, 1779.94 445.23, 1780.25 447.07 C 1780.55 448.91, 1780.72 450.20, 1780.81 453.07 C 1780.91 455.94, 1780.97 457.74, 1780.72 461.41 C 1780.47 465.09, 1780.29 467.31, 1779.58 471.43 C 1778.87 475.56, 1778.38 477.87, 1777.18 482.04 C 1775.98 486.22, 1775.23 488.40, 1773.58 492.30 C 1771.93 496.19, 1770.95 498.15, 1768.92 501.51 C 1766.89 504.87, 1765.73 506.49, 1763.43 509.10 C 1761.14 511.71, 1759.93 512.84, 1757.44 514.57 C 1754.94 516.30, 1753.57 516.92, 1750.94 517.76 C 1748.31 518.60, 1746.88 518.77, 1744.27 518.78 C 1741.66 518.79, 1740.34 518.53, 1737.88 517.81 C 1735.41 517.10, 1734.07 516.45, 1731.95 515.18 C 1729.83 513.92, 1728.81 512.80, 1727.28 511.48 C 1725.74 510.15, 1725.25 509.54, 1724.28 508.58 C 1723.31 507.61, 1722.95 506.94, 1722.42 506.65 C 1721.89 506.37, 1721.60 506.49, 1721.63 507.13 C 1721.65 507.77, 1721.84 508.55, 1722.56 509.85 C 1723.28 511.16, 1723.65 512.04, 1725.21 513.65 C 1726.76 515.27, 1727.95 516.50, 1730.32 517.91 C 1732.70 519.32, 1734.27 519.96, 1737.07 520.71 C 1739.87 521.46, 1741.37 521.74, 1744.32 521.66 C 1747.26 521.58, 1748.89 521.34, 1751.80 520.33 C 1754.71 519.31, 1756.20 518.54, 1758.88 516.60 C 1761.55 514.65, 1762.79 513.39, 1765.16 510.59 C 1767.54 507.79, 1768.69 506.10, 1770.75 502.60 C 1772.82 499.10, 1773.79 497.09, 1775.47 493.10 C 1777.16 489.10, 1777.92 486.88, 1779.19 482.64 C 1780.46 478.39, 1780.98 476.04, 1781.82 471.85 C 1782.66 467.66, 1782.92 465.44, 1783.39 461.67 C 1783.87 457.90, 1784.22 456.06, 1784.19 452.99 C 1784.15 449.92, 1783.90 448.44, 1783.21 446.33 C 1782.53 444.21, 1781.95 443.43, 1780.77 442.40 C 1779.59 441.38, 1778.86 441.22, 1777.32 441.21 C 1775.78 441.20, 1774.97 441.57, 1773.07 442.35 C 1771.17 443.14, 1770.07 443.81, 1767.81 445.14 C 1765.56 446.46, 1764.36 447.45, 1761.80 448.98 C 1759.24 450.51, 1757.74 451.44, 1755.01 452.79 C 1752.27 454.13, 1750.74 454.80, 1748.12 455.70 C 1745.51 456.61, 1744.10 457.01, 1741.93 457.33 C 1739.75 457.65, 1738.75 457.63, 1737.24 457.29 C 1735.72 456.94, 1735.08 456.52, 1734.34 455.61 C 1733.61 454.69, 1733.40 454.06, 1733.56 452.71 C 1733.71 451.37, 1734.09 450.50, 1735.12 448.89 C 1736.15 447.29, 1736.98 446.27, 1738.71 444.70 C 1740.43 443.12, 1741.60 442.25, 1743.73 441.02 C 1745.86 439.80, 1747.14 439.24, 1749.34 438.58 C 1751.55 437.92, 1752.75 437.74, 1754.76 437.71 C 1756.76 437.69, 1757.70 437.89, 1759.37 438.46 C 1761.04 439.03, 1761.79 439.73, 1763.09 440.55 C 1764.40 441.36, 1764.98 441.88, 1765.91 442.53 C 1766.84 443.18, 1767.16 443.68, 1767.73 443.79 C 1768.30 443.89, 1768.72 443.70, 1768.76 443.06" style="stroke: black; fill: black;"/><path d="M 1838.45,389.34 C 1838.08 389.67, 1838.05 389.97, 1837.77 390.96 C 1837.49 391.95, 1837.40 392.54, 1837.06 394.28 C 1836.72 396.02, 1836.52 397.17, 1836.05 399.67 C 1835.58 402.17, 1835.35 403.72, 1834.73 406.76 C 1834.11 409.80, 1833.68 411.51, 1832.94 414.87 C 1832.20 418.23, 1831.77 420.05, 1831.04 423.57 C 1830.31 427.08, 1829.95 429.03, 1829.29 432.46 C 1828.64 435.89, 1828.22 437.71, 1827.77 440.71 C 1827.31 443.71, 1827.17 445.26, 1827.01 447.46 C 1826.85 449.65, 1826.92 450.43, 1826.98 451.68 C 1827.03 452.93, 1827.07 453.29, 1827.27 453.72 C 1827.46 454.15, 1827.67 454.17, 1827.97 453.81 C 1828.26 453.44, 1828.39 453.10, 1828.75 451.90 C 1829.10 450.70, 1829.38 449.95, 1829.76 447.79 C 1830.14 445.64, 1830.21 444.11, 1830.63 441.13 C 1831.04 438.16, 1831.26 436.33, 1831.85 432.92 C 1832.44 429.51, 1832.80 427.58, 1833.56 424.10 C 1834.31 420.62, 1834.76 418.83, 1835.62 415.51 C 1836.47 412.19, 1837.02 410.52, 1837.84 407.50 C 1838.66 404.48, 1839.18 402.96, 1839.73 400.41 C 1840.27 397.85, 1840.45 396.60, 1840.57 394.73 C 1840.69 392.86, 1840.51 392.14, 1840.31 391.06 C 1840.11 389.98, 1839.95 389.66, 1839.57 389.32 C 1839.20 388.98, 1838.81 389.01, 1838.45 389.34" style="stroke: black; fill: black;"/><path d="M 1847.97,442.52 C 1847.41 442.22, 1846.56 442.32, 1845.81 442.49 C 1845.07 442.67, 1844.69 442.93, 1844.25 443.39 C 1843.81 443.85, 1843.66 444.37, 1843.62 444.80 C 1843.58 445.23, 1843.91 445.42, 1844.04 445.54 C 1844.17 445.66, 1844.18 445.32, 1844.27 445.38 C 1844.36 445.44, 1844.20 445.68, 1844.49 445.83 C 1844.78 445.99, 1845.16 446.21, 1845.71 446.15 C 1846.25 446.10, 1846.63 445.98, 1847.21 445.55 C 1847.79 445.12, 1848.45 444.60, 1848.60 443.99 C 1848.75 443.39, 1848.53 442.82, 1847.97 442.52" style="stroke: black; fill: black;"/></svg>